<svg width="71" height="55" viewBox="0 0 71 55" fill="none" xmlns="http://www.w3.org/2000/svg">
<mask id="mask0_14825_25126" style="mask-type:alpha" maskUnits="userSpaceOnUse" x="13" y="18" width="46" height="30">
<path d="M58.8359 18.75H13.8359V37.6765L24.4938 48H48.178L58.8359 37.6765V18.75Z" fill="#D9D9D9"/>
</mask>
<g mask="url(#mask0_14825_25126)">
<path d="M64.082 -25.4922C63.3581 -25.0742 27.2101 11.2523 9.22656 29.3633" stroke="#1A1A1A" stroke-width="0.75"/>
<path d="M64.082 -21.8359C63.3581 -21.418 27.2101 14.9085 9.22656 33.0195" stroke="#1A1A1A" stroke-width="0.75"/>
<path d="M64.082 -18.1797C63.3581 -17.7617 27.2101 18.5648 9.22656 36.6758" stroke="#1A1A1A" stroke-width="0.75"/>
<path d="M64.082 -14.5234C63.3581 -14.1055 27.2101 22.221 9.22656 40.332" stroke="#1A1A1A" stroke-width="0.75"/>
<path d="M64.082 -10.8672C63.3581 -10.4492 27.2101 25.8773 9.22656 43.9883" stroke="#1A1A1A" stroke-width="0.75"/>
<path d="M64.082 -7.21094C63.3581 -6.79299 27.2101 29.5335 9.22656 47.6445" stroke="#1A1A1A" stroke-width="0.75"/>
<path d="M64.082 -3.55469C63.3581 -3.13674 27.2101 33.1898 9.22656 51.3008" stroke="#1A1A1A" stroke-width="0.75"/>
<path d="M64.082 0.101562C63.3581 0.519509 27.2101 36.846 9.22656 54.957" stroke="#1A1A1A" stroke-width="0.75"/>
<path d="M64.082 3.76562C63.3581 4.18357 27.2101 40.5101 9.22656 58.6211" stroke="#1A1A1A" stroke-width="0.75"/>
<path d="M64.082 7.42188C63.3581 7.83982 27.2101 44.1663 9.22656 62.2773" stroke="#1A1A1A" stroke-width="0.75"/>
<path d="M64.082 11.0781C63.3581 11.4961 27.2101 47.8226 9.22656 65.9336" stroke="#1A1A1A" stroke-width="0.75"/>
<path d="M64.082 14.7344C63.3581 15.1523 27.2101 51.4788 9.22656 69.5898" stroke="#1A1A1A" stroke-width="0.75"/>
<path d="M64.082 18.3906C63.3581 18.8086 27.2101 55.1351 9.22656 73.2461" stroke="#1A1A1A" stroke-width="0.75"/>
<path d="M64.082 22.0391C63.3581 22.457 27.2101 58.7835 9.22656 76.8945" stroke="#1A1A1A" stroke-width="0.75"/>
<path d="M64.082 25.7031C63.3581 26.1211 27.2101 62.4476 9.22656 80.5586" stroke="#1A1A1A" stroke-width="0.75"/>
<path d="M64.082 29.3594C63.3581 29.7773 27.2101 66.1038 9.22656 84.2148" stroke="#1A1A1A" stroke-width="0.75"/>
<path d="M64.082 33.0156C63.3581 33.4336 27.2101 69.7601 9.22656 87.8711" stroke="#1A1A1A" stroke-width="0.75"/>
<path d="M64.082 36.6719C63.3581 37.0898 27.2101 73.4163 9.22656 91.5273" stroke="#1A1A1A" stroke-width="0.75"/>
</g>
<path d="M58.0859 18.75H13.8359V38.1618L24.3162 48.75H47.6057L58.0859 38.1618V18.75Z" stroke="#1A1A1A" stroke-width="0.75"/>
<path d="M15.3779 37.0859L24.6973 46.4053H46.9805L56.2998 37.0859V2.50781H67.7402V6.66016H60.4512V38.8057L49.3076 49.9492L48.7002 50.5576H22.9775L22.3701 49.9492L11.2266 38.8057V6.66016H3.9375V2.50781H15.3779V37.0859Z" fill="white"/>
<path d="M15.3779 37.0859H15.0029V37.2413L15.1128 37.3511L15.3779 37.0859ZM24.6973 46.4053L24.4321 46.6704L24.5419 46.7803H24.6973V46.4053ZM46.9805 46.4053V46.7803H47.1358L47.2456 46.6704L46.9805 46.4053ZM56.2998 37.0859L56.565 37.3511L56.6748 37.2413V37.0859H56.2998ZM56.2998 2.50781V2.13281H55.9248V2.50781H56.2998ZM67.7402 2.50781H68.1152V2.13281H67.7402V2.50781ZM67.7402 6.66016V7.03516H68.1152V6.66016H67.7402ZM60.4512 6.66016V6.28516H60.0762V6.66016H60.4512ZM60.4512 38.8057L60.7163 39.0708L60.8262 38.961V38.8057H60.4512ZM49.3076 49.9492L49.0425 49.6841L49.0422 49.6843L49.3076 49.9492ZM48.7002 50.5576V50.9326H48.8557L48.9656 50.8226L48.7002 50.5576ZM22.9775 50.5576L22.7122 50.8226L22.822 50.9326H22.9775V50.5576ZM22.3701 49.9492L22.6355 49.6843L22.6353 49.6841L22.3701 49.9492ZM11.2266 38.8057H10.8516V38.961L10.9614 39.0708L11.2266 38.8057ZM11.2266 6.66016H11.6016V6.28516H11.2266V6.66016ZM3.9375 6.66016H3.5625V7.03516H3.9375V6.66016ZM3.9375 2.50781V2.13281H3.5625V2.50781H3.9375ZM15.3779 2.50781H15.7529V2.13281H15.3779V2.50781ZM15.3779 37.0859L15.1128 37.3511L24.4321 46.6704L24.6973 46.4053L24.9624 46.1401L15.6431 36.8208L15.3779 37.0859ZM24.6973 46.4053V46.7803H46.9805V46.4053V46.0303H24.6973V46.4053ZM46.9805 46.4053L47.2456 46.6704L56.565 37.3511L56.2998 37.0859L56.0346 36.8208L46.7153 46.1401L46.9805 46.4053ZM56.2998 37.0859H56.6748V2.50781H56.2998H55.9248V37.0859H56.2998ZM56.2998 2.50781V2.88281H67.7402V2.50781V2.13281H56.2998V2.50781ZM67.7402 2.50781H67.3652V6.66016H67.7402H68.1152V2.50781H67.7402ZM67.7402 6.66016V6.28516H60.4512V6.66016V7.03516H67.7402V6.66016ZM60.4512 6.66016H60.0762V38.8057H60.4512H60.8262V6.66016H60.4512ZM60.4512 38.8057L60.186 38.5405L49.0425 49.6841L49.3076 49.9492L49.5728 50.2144L60.7163 39.0708L60.4512 38.8057ZM49.3076 49.9492L49.0422 49.6843L48.4348 50.2927L48.7002 50.5576L48.9656 50.8226L49.573 50.2142L49.3076 49.9492ZM48.7002 50.5576V50.1826H22.9775V50.5576V50.9326H48.7002V50.5576ZM22.9775 50.5576L23.2429 50.2927L22.6355 49.6843L22.3701 49.9492L22.1047 50.2142L22.7122 50.8226L22.9775 50.5576ZM22.3701 49.9492L22.6353 49.6841L11.4917 38.5405L11.2266 38.8057L10.9614 39.0708L22.105 50.2144L22.3701 49.9492ZM11.2266 38.8057H11.6016V6.66016H11.2266H10.8516V38.8057H11.2266ZM11.2266 6.66016V6.28516H3.9375V6.66016V7.03516H11.2266V6.66016ZM3.9375 6.66016H4.3125V2.50781H3.9375H3.5625V6.66016H3.9375ZM3.9375 2.50781V2.88281H15.3779V2.50781V2.13281H3.9375V2.50781ZM15.3779 2.50781H15.0029V37.0859H15.3779H15.7529V2.50781H15.3779Z" fill="#1A1A1A"/>
<rect x="24.7109" y="3.375" width="21.75" height="8.25" rx="1.875" stroke="#1A1A1A" stroke-width="0.75"/>
<path d="M40.4766 7.42969H44.1091" stroke="#1A1A1A" stroke-width="0.75"/>
<path d="M26.5859 7.36719H30.2185" stroke="#1A1A1A" stroke-width="0.75"/>
<path d="M28.3984 9.1875L28.3984 5.55492" stroke="#1A1A1A" stroke-width="0.75"/>
</svg>
