<svg width="32" height="32" viewBox="0 0 32 32" fill="none" xmlns="http://www.w3.org/2000/svg">
<path d="M4.83073 26.6693C4.0974 26.6693 3.46962 26.4082 2.9474 25.8859C2.42517 25.3637 2.16406 24.7359 2.16406 24.0026V8.0026C2.16406 7.26927 2.42517 6.64149 2.9474 6.11927C3.46962 5.59705 4.0974 5.33594 4.83073 5.33594H26.1641C26.8974 5.33594 27.5252 5.59705 28.0474 6.11927C28.5696 6.64149 28.8307 7.26927 28.8307 8.0026V24.0026C28.8307 24.7359 28.5696 25.3637 28.0474 25.8859C27.5252 26.4082 26.8974 26.6693 26.1641 26.6693H25.9641C25.3863 26.6693 24.8641 26.5693 24.3974 26.3693C23.9307 26.1693 23.5085 25.8804 23.1307 25.5026L18.0307 20.4026C17.5641 20.7137 17.0585 20.947 16.5141 21.1026C15.9696 21.2582 15.4085 21.3359 14.8307 21.3359C13.1641 21.3359 11.7474 20.7526 10.5807 19.5859C9.41406 18.4193 8.83073 17.0026 8.83073 15.3359C8.83073 13.6693 9.41406 12.2526 10.5807 11.0859C11.7474 9.91927 13.1641 9.33594 14.8307 9.33594C16.4974 9.33594 17.9141 9.91927 19.0807 11.0859C20.2474 12.2526 20.8307 13.6693 20.8307 15.3359C20.8307 15.9359 20.753 16.5026 20.5974 17.0359C20.4418 17.5693 20.2085 18.0693 19.8974 18.5359L25.3641 24.0026H26.1641V8.0026H4.83073V24.0026H17.2641C17.7085 24.0026 18.0418 24.1415 18.2641 24.4193C18.4863 24.6971 18.5974 25.0026 18.5974 25.3359C18.5974 25.6693 18.4863 25.9748 18.2641 26.2526C18.0418 26.5304 17.7085 26.6693 17.2641 26.6693H4.83073ZM14.8307 18.6693C15.7641 18.6693 16.553 18.347 17.1974 17.7026C17.8418 17.0582 18.1641 16.2693 18.1641 15.3359C18.1641 14.4026 17.8418 13.6137 17.1974 12.9693C16.553 12.3248 15.7641 12.0026 14.8307 12.0026C13.8974 12.0026 13.1085 12.3248 12.4641 12.9693C11.8196 13.6137 11.4974 14.4026 11.4974 15.3359C11.4974 16.2693 11.8196 17.0582 12.4641 17.7026C13.1085 18.347 13.8974 18.6693 14.8307 18.6693Z" fill="#EC8621"/>
</svg>
