<svg width="32" height="32" viewBox="0 0 32 32" fill="none" xmlns="http://www.w3.org/2000/svg">
<g clip-path="url(#clip0_8862_58330)">
<path d="M12.6 21.5203C10.1298 21.5203 8.03722 20.6629 6.32233 18.948C4.60744 17.2329 3.75 15.1403 3.75 12.6703C3.75 10.2003 4.60744 8.10776 6.32233 6.39265C8.03722 4.67776 10.1298 3.82031 12.6 3.82031C15.07 3.82031 17.1624 4.67776 18.8773 6.39265C20.5924 8.10776 21.45 10.2003 21.45 12.6703C21.45 13.6588 21.2998 14.5823 20.9993 15.441C20.6987 16.2996 20.2923 17.057 19.7803 17.713L27.1833 25.124C27.4649 25.4109 27.6057 25.7658 27.6057 26.1886C27.6057 26.6118 27.4622 26.9641 27.1753 27.2456C26.8936 27.5272 26.5399 27.668 26.1143 27.668C25.6888 27.668 25.3352 27.5272 25.0537 27.2456L17.6587 19.8506C16.9973 20.3629 16.2347 20.7692 15.3707 21.0696C14.5067 21.3701 13.5831 21.5203 12.6 21.5203ZM12.6 18.487C14.2187 18.487 15.5928 17.9222 16.7223 16.7926C17.8519 15.6633 18.4167 14.2892 18.4167 12.6703C18.4167 11.0514 17.8519 9.67731 16.7223 8.54798C15.5928 7.41842 14.2187 6.85365 12.6 6.85365C10.9811 6.85365 9.60689 7.41842 8.47733 8.54798C7.348 9.67731 6.78333 11.0514 6.78333 12.6703C6.78333 14.2892 7.348 15.6633 8.47733 16.7926C9.60689 17.9222 10.9811 18.487 12.6 18.487Z" fill="#EC8621"/>
</g>
<defs>
<clipPath id="clip0_8862_58330">
<rect width="32" height="32" fill="white" transform="translate(0 32) rotate(-90)"/>
</clipPath>
</defs>
</svg>
